<svg width="24" height="24" viewBox="0 0 20 21" fill="none" xmlns="http://www.w3.org/2000/svg">
  <path d="M10 13C11.6569 13 13 11.6569 13 10C13 8.34315 11.6569 7 10 7C8.34315 7 7 8.34315 7 10C7 11.6569 8.34315 13 10 13Z" stroke="currentColor" stroke-width="2" stroke-linecap="round" stroke-linejoin="round"/>
  <path d="M16.2 13C16.0784 13.3024 16.0503 13.6331 16.1192 13.9511C16.1881 14.2691 16.3509 14.5597 16.587 14.787L16.637 14.837C16.8185 15.0184 16.9621 15.2345 17.0594 15.4725C17.1567 15.7104 17.2058 15.9656 17.2058 16.223C17.2058 16.4804 17.1567 16.7356 17.0594 16.9735C16.9621 17.2115 16.8185 17.4276 16.637 17.609C16.4556 17.7905 16.2395 17.9341 16.0015 18.0314C15.7636 18.1287 15.5084 18.1778 15.251 18.1778C14.9936 18.1778 14.7384 18.1287 14.5005 18.0314C14.2625 17.9341 14.0464 17.7905 13.865 17.609L13.815 17.559C13.5877 17.3229 13.2971 17.1601 12.9791 17.0912C12.6611 17.0223 12.3304 17.0504 12.028 17.172C11.7311 17.2882 11.4753 17.4881 11.2912 17.7479C11.1072 18.0078 11.0027 18.3164 11 18.633V18.8C11 19.3196 10.7893 19.8178 10.4142 20.1929C10.0391 20.5679 9.54044 20.7786 9.021 20.7786C8.50156 20.7786 8.00288 20.5679 7.62781 20.1929C7.25274 19.8178 7.042 19.3196 7.042 18.8V18.723C7.03284 18.3959 6.91876 18.0793 6.71609 17.8173C6.51342 17.5553 6.23188 17.3608 5.912 17.261C5.60964 17.1394 5.27894 17.1113 4.96094 17.1802C4.64294 17.2491 4.35232 17.4119 4.125 17.648L4.075 17.698C3.89358 17.8795 3.67749 18.0231 3.43954 18.1204C3.20159 18.2177 2.94638 18.2668 2.689 18.2668C2.43162 18.2668 2.17641 18.2177 1.93846 18.1204C1.70051 18.0231 1.48442 17.8795 1.303 17.698C1.12148 17.5166 0.977889 17.3005 0.880604 17.0625C0.783318 16.8246 0.734192 16.5694 0.734192 16.312C0.734192 16.0546 0.783318 15.7994 0.880604 15.5615C0.977889 15.3235 1.12148 15.1074 1.303 14.926L1.353 14.876C1.58914 14.6487 1.75191 14.3581 1.82082 14.0401C1.88973 13.7221 1.86159 13.3914 1.74 13.089C1.62377 12.7921 1.42391 12.5363 1.16407 12.3522C0.904226 12.1682 0.595596 12.0637 0.279 12.051H0.1C-0.419442 12.051 -0.917816 11.8403 -1.29289 11.4652C-1.66796 11.0901 -1.8787 10.5914 -1.8787 10.072C-1.8787 9.55256 -1.66796 9.05388 -1.29289 8.67881C-0.917816 8.30374 -0.419442 8.093 0.1 8.093H0.177C0.504062 8.08384 0.820719 7.96976 1.08272 7.76709C1.34472 7.56442 1.53924 7.28288 1.639 6.963C1.76059 6.66064 1.78873 6.32994 1.71982 6.01194C1.65091 5.69394 1.48814 5.40332 1.252 5.176L1.202 5.126C1.02048 4.94458 0.876889 4.72849 0.779604 4.49054C0.682318 4.25259 0.633192 3.99738 0.633192 3.74C0.633192 3.48262 0.682318 3.22741 0.779604 2.98946C0.876889 2.75151 1.02048 2.53542 1.202 2.354C1.38342 2.17248 1.59951 2.02889 1.83746 1.9316C2.07541 1.83432 2.33062 1.78519 2.588 1.78519C2.84538 1.78519 3.10059 1.83432 3.33854 1.9316C3.57649 2.02889 3.79258 2.17248 3.974 2.354L4.024 2.404C4.25132 2.64014 4.54194 2.80291 4.85994 2.87182C5.17794 2.94073 5.50864 2.91259 5.811 2.791H5.912C6.20889 2.67477 6.46469 2.47491 6.64873 2.21507C6.83277 1.95523 6.93729 1.6466 6.95 1.328V1.2C6.95 0.680558 7.16074 0.181884 7.53581 -0.193185C7.91088 -0.568254 8.40956 -0.778998 8.929 -0.778998C9.44844 -0.778998 9.94712 -0.568254 10.3222 -0.193185C10.6973 0.181884 10.908 0.680558 10.908 1.2V1.277C10.9207 1.5956 11.0252 1.90423 11.2093 2.16407C11.3933 2.42391 11.6491 2.62377 11.946 2.74C12.2484 2.86159 12.5791 2.88973 12.8971 2.82082C13.2151 2.75191 13.5057 2.58914 13.733 2.353L13.783 2.303C13.9644 2.12148 14.1805 1.97789 14.4185 1.8806C14.6564 1.78332 14.9116 1.73419 15.169 1.73419C15.4264 1.73419 15.6816 1.78332 15.9195 1.8806C16.1575 1.97789 16.3736 2.12148 16.555 2.303C16.7365 2.48442 16.8801 2.70051 16.9774 2.93846C17.0747 3.17641 17.1238 3.43162 17.1238 3.689C17.1238 3.94638 17.0747 4.20159 16.9774 4.43954C16.8801 4.67749 16.7365 4.89358 16.555 5.075L16.505 5.125C16.2689 5.35232 16.1061 5.64294 16.0372 5.96094C15.9683 6.27894 15.9964 6.60964 16.118 6.912V7.013C16.2342 7.30989 16.4341 7.56569 16.6939 7.74973C16.9538 7.93377 17.2624 8.03829 17.581 8.051H17.758C18.2774 8.051 18.7761 8.26174 19.1512 8.63681C19.5263 9.01188 19.737 9.51056 19.737 10.03C19.737 10.5494 19.5263 11.0481 19.1512 11.4232C18.7761 11.7983 18.2774 12.009 17.758 12.009H17.681C17.3624 12.0217 17.0538 12.1262 16.7939 12.3103C16.5341 12.4943 16.3342 12.7501 16.218 13.047L16.2 13Z" stroke="currentColor" stroke-width="2" stroke-linecap="round" stroke-linejoin="round"/>
</svg>
